<svg xmlns="http://www.w3.org/2000/svg" viewBox="0 0 200 200" fill="none">
  <defs>
    <linearGradient id="clayBase" x1="33" y1="28" x2="164" y2="172" gradientUnits="userSpaceOnUse">
      <stop stop-color="#FFF1E3"/>
      <stop offset="1" stop-color="#FFD8B8"/>
    </linearGradient>
    <linearGradient id="fur" x1="52" y1="42" x2="145" y2="152" gradientUnits="userSpaceOnUse">
      <stop stop-color="#F59F53"/>
      <stop offset="1" stop-color="#D76A27"/>
    </linearGradient>
    <linearGradient id="cream" x1="72" y1="70" x2="124" y2="144" gradientUnits="userSpaceOnUse">
      <stop stop-color="#FFFDF8"/>
      <stop offset="1" stop-color="#FFF3E2"/>
    </linearGradient>
    <linearGradient id="yarn" x1="32" y1="136" x2="72" y2="172" gradientUnits="userSpaceOnUse">
      <stop stop-color="#F3B066"/>
      <stop offset="1" stop-color="#D7802E"/>
    </linearGradient>
    <filter id="shadow" x="8" y="12" width="184" height="180" filterUnits="userSpaceOnUse" color-interpolation-filters="sRGB">
      <feDropShadow dx="0" dy="12" stdDeviation="10" flood-color="#A94F1F" flood-opacity="0.22"/>
    </filter>
  </defs>
  <g filter="url(#shadow)">
    <rect x="18" y="18" width="164" height="164" rx="42" fill="url(#clayBase)"/>
    <path d="M68 56L51 28L79 44C84 47 87 54 86 60L68 56Z" fill="url(#fur)"/>
    <path d="M132 56L149 28L121 44C116 47 113 54 114 60L132 56Z" fill="url(#fur)"/>
    <path d="M100 42C66.311 42 39 68.863 39 102C39 135.137 66.311 162 100 162C133.689 162 161 135.137 161 102C161 68.863 133.689 42 100 42Z" fill="url(#fur)"/>
    <path d="M100 58C76.252 58 57 77.252 57 101C57 124.748 76.252 144 100 144C123.748 144 143 124.748 143 101C143 77.252 123.748 58 100 58Z" fill="url(#cream)"/>
    <path d="M63 63C71 54 84 49 100 49C116 49 129 54 137 63C126 59 114 57 100 57C86 57 74 59 63 63Z" fill="#FFE9D4"/>
    <path d="M61 68C69 60 83 56 100 56C117 56 131 60 139 68" stroke="#B9632D" stroke-opacity="0.18" stroke-width="8" stroke-linecap="round"/>
    <circle cx="79" cy="101" r="6.5" fill="#2C180E"/>
    <circle cx="121" cy="101" r="6.5" fill="#2C180E"/>
    <path d="M90 116C94 111 97.333 108.5 100 108.5C102.667 108.5 106 111 110 116L100 124L90 116Z" fill="#8B4A2A"/>
    <path d="M86 131C92 136 96.667 138.5 100 138.5C103.333 138.5 108 136 114 131" stroke="#8B4A2A" stroke-width="4" stroke-linecap="round"/>
    <ellipse cx="77" cy="118" rx="7" ry="4.5" fill="#F3A0A6" fill-opacity="0.62"/>
    <ellipse cx="123" cy="118" rx="7" ry="4.5" fill="#F3A0A6" fill-opacity="0.62"/>
    <path d="M60 129C74 123 87 120 100 120C113 120 126 123 140 129L136 142C124 138 112 136 100 136C88 136 76 138 64 142L60 129Z" fill="#F0C6A0"/>
    <path d="M46 145C55 132 74 129 84 138C78 146 69 151 58 153L46 145Z" fill="#F3A875"/>
    <path d="M154 145C145 132 126 129 116 138C122 146 131 151 142 153L154 145Z" fill="#F3A875"/>
    <path d="M84 139L66 151" stroke="#B98663" stroke-width="5" stroke-linecap="round"/>
    <path d="M116 139L134 151" stroke="#B98663" stroke-width="5" stroke-linecap="round"/>
    <circle cx="48" cy="157" r="16" fill="url(#yarn)"/>
    <path d="M35 155C42 149 51 147 61 149" stroke="#FFF6EA" stroke-width="3" stroke-linecap="round"/>
    <path d="M34 162C41 156 51 154 62 156" stroke="#FFF6EA" stroke-width="3" stroke-linecap="round"/>
    <path d="M38 168C46 161 54 159 61 160" stroke="#FFF6EA" stroke-width="3" stroke-linecap="round"/>
    <path d="M86 146L59 160" stroke="#A46B53" stroke-width="4.5" stroke-linecap="round"/>
    <path d="M114 146L141 160" stroke="#A46B53" stroke-width="4.5" stroke-linecap="round"/>
    <path d="M57 160C68 154 77 150 88 146" stroke="#F2B88A" stroke-width="2.8" stroke-linecap="round" stroke-dasharray="4 5"/>
    <path d="M111 146C122 151 132 156 142 162" stroke="#F2B88A" stroke-width="2.8" stroke-linecap="round" stroke-dasharray="4 5"/>
    <circle cx="145" cy="48" r="10" fill="#F6C6D2"/>
    <path d="M140 46C145 40 152 40 155 45" stroke="#E97D93" stroke-width="3.5" stroke-linecap="round"/>
  </g>
</svg>
