<svg xmlns="http://www.w3.org/2000/svg" width="480" height="480" viewBox="0 0 480 480" fill="none">
  <rect width="480" height="480" fill="#FFF8F0"/>
  <g opacity="0.34" stroke="#E9C6A5" stroke-width="10" stroke-linecap="round">
    <path d="M-20 80C42 14 110 14 172 80C234 146 302 146 364 80C426 14 494 14 556 80"/>
    <path d="M-40 150C22 84 90 84 152 150C214 216 282 216 344 150C406 84 474 84 536 150"/>
    <path d="M-20 220C42 154 110 154 172 220C234 286 302 286 364 220C426 154 494 154 556 220"/>
    <path d="M-40 290C22 224 90 224 152 290C214 356 282 356 344 290C406 224 474 224 536 290"/>
    <path d="M-20 360C42 294 110 294 172 360C234 426 302 426 364 360C426 294 494 294 556 360"/>
    <path d="M-40 430C22 364 90 364 152 430C214 496 282 496 344 430C406 364 474 364 536 430"/>
  </g>
  <g opacity="0.18" stroke="#FFFFFF" stroke-width="4">
    <path d="M0 38H480"/>
    <path d="M0 118H480"/>
    <path d="M0 198H480"/>
    <path d="M0 278H480"/>
    <path d="M0 358H480"/>
    <path d="M0 438H480"/>
  </g>
</svg>
